<?xml version="1.0" encoding="utf-8"?>
<!-- Generator: Adobe Illustrator 23.0.3, SVG Export Plug-In . SVG Version: 6.00 Build 0)  -->
<svg version="1.1" id="Capa_1" xmlns="http://www.w3.org/2000/svg" xmlns:xlink="http://www.w3.org/1999/xlink" x="0px" y="0px"
	 viewBox="0 0 230 66.2" style="enable-background:new 0 0 230 66.2;" xml:space="preserve">
<style type="text/css">
	.st0{fill:#AEAAA2;}
	.st1{fill:#80C4D6;}
</style>
<path class="st0" d="M38.6,14c3.3,2.8,5,6.7,5,11.6c0,5-1.7,8.9-5,11.6c-3.3,2.8-8,4.2-13.9,4.2H9.8V58H8.4V9.9h16.3
	C30.6,9.9,35.2,11.3,38.6,14z M37.7,36.4c3-2.5,4.5-6.1,4.5-10.7c0-4.6-1.5-8.2-4.5-10.7c-3-2.5-7.3-3.8-12.9-3.8h-15v29h15
	C30.4,40.2,34.7,38.9,37.7,36.4z"/>
<path class="st0" d="M71.5,25.4c2.2,2.1,3.3,5.2,3.3,9.2V58h-1.4v-7.6c-1.1,2.4-2.9,4.3-5.2,5.7c-2.3,1.4-5.1,2.1-8.3,2.1
	c-3.9,0-7-0.9-9.2-2.7c-2.2-1.8-3.3-4.2-3.3-7.2c0-2.8,1-5.1,3-6.9c2-1.8,5.2-2.6,9.7-2.6h13.5v-3.9c0-3.7-1-6.5-2.9-8.4
	c-1.9-1.9-4.7-2.8-8.4-2.8c-2.6,0-5,0.4-7.2,1.3c-2.2,0.9-4.1,2.1-5.7,3.6l-1-1c1.7-1.6,3.8-2.9,6.2-3.9c2.4-0.9,5-1.4,7.6-1.4
	C66.2,22.2,69.4,23.3,71.5,25.4z M73.4,47.8V40H59.9c-3.8,0-6.7,0.7-8.5,2.2c-1.8,1.5-2.7,3.5-2.7,6c0,2.7,1,4.8,3,6.4
	c2,1.6,4.7,2.3,8.2,2.3C66.5,56.9,71,53.9,73.4,47.8z"/>
<path class="st0" d="M83.8,7h1.4v51h-1.4V7z"/>
<path class="st0" d="M125.5,34.6L95.8,45.4c1.1,3,2.7,5.5,5,7.4s4.7,3.1,7.6,3.6c2.8,0.5,5.7,0.2,8.6-0.9c2.3-0.8,4.3-2.1,5.9-3.7
	c1.7-1.6,2.9-3.5,3.5-5.6l1.2,0.6c-0.8,2.3-2.1,4.3-3.9,6c-1.8,1.7-3.9,3-6.3,3.9c-3.2,1.2-6.3,1.5-9.3,0.9c-3-0.5-5.8-1.8-8.1-3.9
	s-4.2-4.7-5.3-7.9s-1.6-6.4-1.2-9.4c0.4-3,1.5-5.7,3.3-8c1.8-2.3,4.2-4,7.1-5c2.9-1,5.8-1.3,8.7-0.7c2.9,0.6,5.5,1.8,7.7,3.8
	s4,4.6,5.1,7.8L125.5,34.6z M97.9,29c-1.7,2-2.7,4.4-3.2,7c-0.5,2.7-0.3,5.4,0.6,8.1l28.5-10.4c-1.1-2.7-2.7-4.9-4.8-6.6
	c-2.1-1.7-4.4-2.8-7-3.3c-2.6-0.5-5.1-0.3-7.7,0.7C101.7,25.5,99.6,27,97.9,29z"/>
<path class="st0" d="M152.1,55.6c-0.8,0.8-1.8,1.5-3.1,1.9c-1.3,0.4-2.6,0.7-3.9,0.7c-2.7,0-4.9-0.8-6.4-2.4
	c-1.5-1.6-2.2-3.7-2.2-6.4V23.8h-6.9v-1.3h6.9v-7.8h1.4v7.8h12v1.3h-12v25.4c0,2.5,0.6,4.4,1.9,5.8c1.2,1.3,3,2,5.4,2
	c2.4,0,4.4-0.7,5.9-2.2L152.1,55.6z"/>
<path class="st0" d="M177.8,55.6c-0.8,0.8-1.8,1.5-3.1,1.9c-1.3,0.4-2.6,0.7-3.9,0.7c-2.7,0-4.9-0.8-6.4-2.4
	c-1.5-1.6-2.2-3.7-2.2-6.4V23.8h-6.9v-1.3h6.9v-7.8h1.4v7.8h12v1.3h-12v25.4c0,2.5,0.6,4.4,1.9,5.8c1.2,1.3,3,2,5.4,2
	c2.4,0,4.4-0.7,5.9-2.2L177.8,55.6z"/>
<path class="st0" d="M213.2,34.6l-29.7,10.8c1.1,3,2.7,5.5,5,7.4s4.7,3.1,7.6,3.6c2.8,0.5,5.7,0.2,8.6-0.9c2.3-0.8,4.3-2.1,5.9-3.7
	c1.7-1.6,2.9-3.5,3.5-5.6l1.2,0.6c-0.8,2.3-2.1,4.3-3.9,6c-1.8,1.7-3.9,3-6.3,3.9c-3.2,1.2-6.3,1.5-9.3,0.9c-3-0.5-5.8-1.8-8.1-3.9
	s-4.2-4.7-5.3-7.9s-1.6-6.4-1.2-9.4c0.4-3,1.5-5.7,3.3-8c1.8-2.3,4.2-4,7.1-5c2.9-1,5.8-1.3,8.7-0.7c2.9,0.6,5.5,1.8,7.7,3.8
	c2.3,2,4,4.6,5.1,7.8L213.2,34.6z M185.7,29c-1.7,2-2.7,4.4-3.2,7c-0.5,2.7-0.3,5.4,0.6,8.1l28.5-10.4c-1.1-2.7-2.7-4.9-4.8-6.6
	c-2.1-1.7-4.4-2.8-7-3.3c-2.6-0.5-5.1-0.3-7.7,0.7S187.3,27,185.7,29z"/>
<path class="st1" d="M220,57.5c-0.6-0.6-0.9-1.3-0.9-2c0-0.8,0.3-1.5,0.9-2.1c0.6-0.6,1.3-0.8,2-0.8c0.8,0,1.5,0.3,2.1,0.8
	c0.6,0.6,0.8,1.3,0.8,2.1c0,0.8-0.3,1.4-0.8,2c-0.6,0.6-1.3,0.9-2.1,0.9C221.2,58.4,220.6,58.1,220,57.5z"/>
</svg>
