<?xml version="1.0" encoding="utf-8"?>
<!-- Generator: Adobe Illustrator 23.0.3, SVG Export Plug-In . SVG Version: 6.00 Build 0)  -->
<svg version="1.1" id="Capa_1" xmlns="http://www.w3.org/2000/svg" xmlns:xlink="http://www.w3.org/1999/xlink" x="0px" y="0px"
	 viewBox="0 0 349 157" style="enable-background:new 0 0 349 157;" xml:space="preserve">
<style type="text/css">
	.st0{fill:#CFCBBF;}
</style>
<g>
	<path class="st0" d="M128.5,122.2c-1.3,1.1-2.8,2-4.4,2.6c-1.6,0.6-3.3,0.9-5.1,0.9c-1.3,0-2.6-0.2-3.9-0.5
		c-1.2-0.3-2.4-0.8-3.5-1.5s-2.1-1.4-3-2.3c-0.9-0.9-1.7-1.9-2.3-3c-0.6-1.1-1.1-2.3-1.5-3.5c-0.4-1.3-0.5-2.6-0.5-3.9
		s0.2-2.6,0.5-3.9c0.3-1.2,0.8-2.4,1.5-3.5c0.6-1.1,1.4-2.1,2.3-3c0.9-0.9,1.9-1.7,3-2.3s2.2-1.1,3.5-1.5c1.2-0.3,2.5-0.5,3.9-0.5
		c1.8,0,3.4,0.3,5.1,0.9s3.1,1.5,4.4,2.6l-3,5c-0.9-0.9-1.8-1.6-3-2.1c-1.1-0.5-2.3-0.7-3.5-0.7c-1.2,0-2.4,0.2-3.5,0.7
		c-1.1,0.5-2,1.1-2.9,1.9c-0.8,0.8-1.5,1.8-1.9,2.9c-0.5,1.1-0.7,2.3-0.7,3.5c0,1.3,0.2,2.4,0.7,3.5c0.5,1.1,1.1,2.1,1.9,2.9
		c0.8,0.8,1.8,1.5,2.9,1.9c1.1,0.5,2.3,0.7,3.5,0.7c0.7,0,1.4-0.1,2.1-0.3c0.7-0.2,1.3-0.4,1.9-0.7V111h5.5V122.2z"/>
	<path class="st0" d="M155.2,125.1h-5.7v-5.7h-11.4v5.7h-5.7v-17c0-1.6,0.3-3,0.9-4.4c0.6-1.4,1.4-2.6,2.4-3.6c1-1,2.2-1.8,3.6-2.4
		c1.4-0.6,2.9-0.9,4.4-0.9s3,0.3,4.4,0.9c1.4,0.6,2.6,1.4,3.6,2.4c1,1,1.8,2.2,2.4,3.6c0.6,1.4,0.9,2.9,0.9,4.4V125.1z M149.6,113.8
		v-5.7c0-0.8-0.1-1.5-0.4-2.2c-0.3-0.7-0.7-1.3-1.2-1.8c-0.5-0.5-1.1-0.9-1.8-1.2c-0.7-0.3-1.4-0.4-2.2-0.4s-1.5,0.1-2.2,0.4
		c-0.7,0.3-1.3,0.7-1.8,1.2c-0.5,0.5-0.9,1.1-1.2,1.8c-0.3,0.7-0.4,1.4-0.4,2.2v5.7H149.6z"/>
	<path class="st0" d="M188.4,125.1h-5.7v-20.3c0-0.4-0.1-0.8-0.2-1.1c-0.2-0.3-0.4-0.6-0.6-0.9c-0.3-0.3-0.6-0.5-0.9-0.6
		c-0.3-0.1-0.7-0.2-1.1-0.2c-0.4,0-0.8,0.1-1.1,0.2c-0.3,0.1-0.6,0.3-0.9,0.6c-0.3,0.3-0.5,0.6-0.6,0.9c-0.1,0.3-0.2,0.7-0.2,1.1
		v20.3h-5.7v-20.3c0-0.4-0.1-0.8-0.2-1.1c-0.1-0.3-0.3-0.6-0.6-0.9c-0.3-0.3-0.6-0.5-0.9-0.6c-0.3-0.1-0.7-0.2-1.1-0.2
		c-0.4,0-0.8,0.1-1.1,0.2c-0.3,0.1-0.6,0.3-0.9,0.6c-0.3,0.3-0.5,0.6-0.6,0.9c-0.1,0.3-0.2,0.7-0.2,1.1v20.3H160v-20.3
		c0-1.2,0.2-2.3,0.7-3.3c0.4-1,1.1-1.9,1.8-2.7c0.8-0.8,1.7-1.4,2.7-1.8c1-0.4,2.1-0.7,3.3-0.7c1.1,0,2.1,0.2,3.1,0.6
		c1,0.4,1.9,0.9,2.6,1.6c0.8-0.7,1.7-1.3,2.6-1.6c1-0.4,2-0.6,3-0.6c1.2,0,2.3,0.2,3.3,0.7c1,0.4,1.9,1,2.7,1.8
		c0.8,0.8,1.4,1.7,1.8,2.7c0.4,1,0.7,2.1,0.7,3.3V125.1z"/>
	<path class="st0" d="M212.9,125.1h-19.5V96.7h19.5v5.7h-13.8v5.7h9.3v5.7h-9.3v5.7h13.8V125.1z"/>
	<path class="st0" d="M214.9,105.2c0-1.2,0.2-2.3,0.7-3.3c0.4-1,1.1-1.9,1.8-2.7c0.8-0.8,1.7-1.4,2.7-1.8c1-0.4,2.1-0.7,3.3-0.7h13
		v5.7h-13c-0.4,0-0.8,0.1-1.1,0.2c-0.3,0.1-0.6,0.3-0.9,0.6c-0.3,0.3-0.5,0.6-0.6,0.9s-0.2,0.7-0.2,1.1s0.1,0.8,0.2,1.1
		c0.1,0.4,0.3,0.7,0.6,0.9c0.3,0.3,0.6,0.5,0.9,0.6c0.3,0.1,0.7,0.2,1.1,0.2h5.7c1.2,0,2.3,0.2,3.3,0.7c1,0.4,1.9,1,2.7,1.8
		c0.8,0.8,1.4,1.7,1.8,2.7c0.4,1,0.7,2.1,0.7,3.3c0,1.2-0.2,2.3-0.7,3.3s-1,1.9-1.8,2.7c-0.8,0.8-1.7,1.4-2.7,1.8
		c-1,0.4-2.1,0.7-3.3,0.7h-12.6v-5.7h12.6c0.4,0,0.8-0.1,1.1-0.2c0.3-0.1,0.6-0.3,0.9-0.6c0.3-0.3,0.5-0.6,0.6-0.9
		c0.1-0.3,0.2-0.7,0.2-1.1s-0.1-0.8-0.2-1.1c-0.1-0.3-0.3-0.6-0.6-0.9c-0.3-0.3-0.6-0.5-0.9-0.6c-0.3-0.1-0.7-0.2-1.1-0.2h-5.7
		c-1.2,0-2.3-0.2-3.3-0.7c-1-0.4-1.9-1.1-2.7-1.8c-0.8-0.8-1.4-1.7-1.8-2.7C215.1,107.5,214.9,106.4,214.9,105.2z"/>
</g>
<g>
	<rect x="59.6" y="96.9" class="st0" width="28.7" height="5.7"/>
	<rect x="59.6" y="108.4" class="st0" width="28.7" height="5.7"/>
	<rect x="59.6" y="119.9" class="st0" width="28.7" height="5.7"/>
</g>
<g>
	<rect x="254.1" y="96.9" class="st0" width="28.7" height="5.7"/>
	<rect x="254.1" y="108.4" class="st0" width="28.7" height="5.7"/>
	<rect x="254.1" y="119.9" class="st0" width="28.7" height="5.7"/>
</g>
<g>
	<path class="st0" d="M102.7,51.6c0,3.6-0.6,6.8-1.9,9.3c-1.3,2.6-3,4.6-5.2,6.2c-2.2,1.6-4.8,2.8-7.7,3.5c-2.9,0.7-6.1,1.1-9.5,1.1
		v12.6H61.6V31.4h16.9c3.4,0,6.5,0.4,9.5,1.1c2.9,0.7,5.5,1.9,7.7,3.5c2.2,1.6,3.9,3.7,5.2,6.2C102.1,44.8,102.7,47.9,102.7,51.6z
		 M95,51.6c0-2.4-0.4-4.4-1.2-6.2c-0.8-1.7-2-3.2-3.5-4.3c-1.5-1.1-3.2-1.9-5.3-2.5c-2-0.6-4.2-0.8-6.6-0.8h-9V78h2.1V65.4h6.9
		c2.4,0,4.6-0.3,6.6-0.8c2-0.6,3.8-1.4,5.3-2.5c1.5-1.1,2.6-2.5,3.5-4.3C94.6,56,95,54,95,51.6z M92.8,51.6c0,2.3-0.4,4.2-1.2,5.7
		c-0.8,1.5-1.9,2.7-3.2,3.6c-1.3,0.9-2.8,1.5-4.6,1.9c-1.7,0.4-3.5,0.6-5.4,0.6h-6.9V39.7h6.9c1.9,0,3.7,0.2,5.4,0.6
		c1.7,0.4,3.2,1,4.6,1.9c1.3,0.9,2.4,2.1,3.2,3.6C92.4,47.4,92.8,49.3,92.8,51.6z M78.5,57.5h0.7c2.2,0,3.8-0.5,4.8-1.5
		c1-1,1.5-2.5,1.5-4.3c0-1.9-0.5-3.3-1.5-4.3c-1-1-2.6-1.5-4.8-1.5h-0.7V57.5z"/>
	<path class="st0" d="M106.7,31.4h17.9v52.9h-17.9V31.4z M116.7,78V37.8h-2.1V78H116.7z"/>
	<path class="st0" d="M130.2,31.4h17.6v39h14.6v13.9h-32.2V31.4z M157.9,78v-1.9h-17.8V37.8h-2.1V78H157.9z"/>
	<path class="st0" d="M222.2,51.6c0,3.6-0.6,6.8-1.9,9.3c-1.3,2.6-3,4.6-5.2,6.2c-2.2,1.6-4.8,2.8-7.7,3.5c-2.9,0.7-6.1,1.1-9.5,1.1
		v12.6H181V31.4h16.9c3.4,0,6.5,0.4,9.5,1.1c2.9,0.7,5.5,1.9,7.7,3.5c2.2,1.6,3.9,3.7,5.2,6.2C221.5,44.8,222.2,47.9,222.2,51.6z
		 M214.5,51.6c0-2.4-0.4-4.4-1.2-6.2c-0.8-1.7-2-3.2-3.5-4.3c-1.5-1.1-3.2-1.9-5.3-2.5c-2-0.6-4.2-0.8-6.6-0.8h-9V78h2.1V65.4h6.9
		c2.4,0,4.6-0.3,6.6-0.8c2-0.6,3.8-1.4,5.3-2.5c1.5-1.1,2.6-2.5,3.5-4.3C214.1,56,214.5,54,214.5,51.6z M212.3,51.6
		c0,2.3-0.4,4.2-1.2,5.7c-0.8,1.5-1.9,2.7-3.2,3.6c-1.3,0.9-2.8,1.5-4.6,1.9c-1.7,0.4-3.5,0.6-5.4,0.6H191V39.7h6.9
		c1.9,0,3.7,0.2,5.4,0.6c1.7,0.4,3.2,1,4.6,1.9c1.3,0.9,2.4,2.1,3.2,3.6C211.9,47.4,212.3,49.3,212.3,51.6z M197.9,57.5h0.7
		c2.2,0,3.8-0.5,4.8-1.5c1-1,1.5-2.5,1.5-4.3c0-1.9-0.5-3.3-1.5-4.3c-1-1-2.6-1.5-4.8-1.5h-0.7V57.5z"/>
	<path class="st0" d="M226.1,31.4h17.9v52.9h-17.9V31.4z M236.1,78V37.8h-2.1V78H236.1z"/>
	<path class="st0" d="M249.6,31.4h17.6v39h14.6v13.9h-32.2V31.4z M277.4,78v-1.9h-17.8V37.8h-2.1V78H277.4z"/>
</g>
</svg>
